<?xml version="1.0" encoding="us-ascii" standalone="no"?><svg xmlns="http://www.w3.org/2000/svg" xmlns:xlink="http://www.w3.org/1999/xlink" contentStyleType="text/css" height="466px" preserveAspectRatio="none" style="width:1690px;height:466px;background:#FFFFFF;" version="1.1" viewBox="0 0 1690 466" width="1690px" zoomAndPan="magnify"><defs/><g><!--entity DietPenguin.Core--><g id="elem_DietPenguin.Core"><path d="M550.5,419.5 L701.5,419.5 A3.75,3.75 0 0 1 704,422 L711,441.7969 L725.5,441.7969 A2.5,2.5 0 0 1 728,444.2969 L728,456.2969 A2.5,2.5 0 0 1 725.5,458.7969 L550.5,458.7969 A2.5,2.5 0 0 1 548,456.2969 L548,422 A2.5,2.5 0 0 1 550.5,419.5 " fill="#F1F1F1" style="stroke:#181818;stroke-width:0.5;"/><line style="stroke:#181818;stroke-width:0.5;" x1="548" x2="711" y1="441.7969" y2="441.7969"/><text fill="#000000" font-family="sans-serif" font-size="14" font-weight="bold" lengthAdjust="spacing" textLength="138" x="558" y="435.4951">DietPenguin.Core</text></g><g id="elem_GMN3"><path d="M763,419 L763,435 L728.109,439 L763,443 L763,459.2656 A0,0 0 0 0 763,459.2656 L1145,459.2656 A0,0 0 0 0 1145,459.2656 L1145,429 L1135,419 L763,419 A0,0 0 0 0 763,419 " fill="#FEFFDD" style="stroke:#181818;stroke-width:0.5;"/><path d="M1135,419 L1135,429 L1145,429 L1135,419 " fill="#FEFFDD" style="stroke:#181818;stroke-width:0.5;"/><text fill="#000000" font-family="sans-serif" font-size="13" lengthAdjust="spacing" textLength="338" x="769" y="436.0669">Elementy wsp&#243;lne dla wszystkich aspekt&#243;w domeny</text><text fill="#000000" font-family="sans-serif" font-size="13" lengthAdjust="spacing" textLength="361" x="769" y="451.1997">(abstrakcja encji, agregatu, zdarzenia domenowego itp.)</text></g><!--entity DietPenguin.Domain--><g id="elem_DietPenguin.Domain"><path d="M538,320 L714,320 A3.75,3.75 0 0 1 716.5,322.5 L723.5,342.2969 L738,342.2969 A2.5,2.5 0 0 1 740.5,344.7969 L740.5,356.7969 A2.5,2.5 0 0 1 738,359.2969 L538,359.2969 A2.5,2.5 0 0 1 535.5,356.7969 L535.5,322.5 A2.5,2.5 0 0 1 538,320 " fill="#F1F1F1" style="stroke:#181818;stroke-width:0.5;"/><line style="stroke:#181818;stroke-width:0.5;" x1="535.5" x2="723.5" y1="342.2969" y2="342.2969"/><text fill="#000000" font-family="sans-serif" font-size="14" font-weight="bold" lengthAdjust="spacing" textLength="163" x="545.5" y="335.9951">DietPenguin.Domain</text></g><g id="elem_GMN7"><path d="M6,327 L6,352.1328 A0,0 0 0 0 6,352.1328 L500,352.1328 A0,0 0 0 0 500,352.1328 L500,345 L535.321,339.5 L500,337 L500,337 L490,327 L6,327 A0,0 0 0 0 6,327 " fill="#FEFFDD" style="stroke:#181818;stroke-width:0.5;"/><path d="M490,327 L490,337 L500,337 L490,327 " fill="#FEFFDD" style="stroke:#181818;stroke-width:0.5;"/><text fill="#000000" font-family="sans-serif" font-size="13" lengthAdjust="spacing" textLength="473" x="12" y="344.0669">Kod opisuj&#261;cy aspekty domeny potrzebne dla realizowanej zada&#324; aplikacji</text></g><!--entity DietPenguin.Infrastructure--><g id="elem_DietPenguin.Infrastructure"><path d="M375.5,221 L606.5,221 A3.75,3.75 0 0 1 609,223.5 L616,243.2969 L630.5,243.2969 A2.5,2.5 0 0 1 633,245.7969 L633,257.7969 A2.5,2.5 0 0 1 630.5,260.2969 L375.5,260.2969 A2.5,2.5 0 0 1 373,257.7969 L373,223.5 A2.5,2.5 0 0 1 375.5,221 " fill="#F1F1F1" style="stroke:#181818;stroke-width:0.5;"/><line style="stroke:#181818;stroke-width:0.5;" x1="373" x2="616" y1="243.2969" y2="243.2969"/><text fill="#000000" font-family="sans-serif" font-size="14" font-weight="bold" lengthAdjust="spacing" textLength="218" x="383" y="236.9951">DietPenguin.Infrastructure</text></g><g id="elem_GMN11"><path d="M266,106 L266,161.3984 A0,0 0 0 0 266,161.3984 L499,161.3984 L503,220.727 L507,161.3984 L740,161.3984 A0,0 0 0 0 740,161.3984 L740,116 L730,106 L266,106 A0,0 0 0 0 266,106 " fill="#FEFFDD" style="stroke:#181818;stroke-width:0.5;"/><path d="M730,106 L730,116 L740,116 L730,106 " fill="#FEFFDD" style="stroke:#181818;stroke-width:0.5;"/><text fill="#000000" font-family="sans-serif" font-size="13" lengthAdjust="spacing" textLength="236" x="272" y="123.0669">Infrastruktura potrzebna do dzia&#322;ania</text><text fill="#000000" font-family="sans-serif" font-size="13" lengthAdjust="spacing" textLength="444" x="272" y="138.1997">aplikacji dostarczana cz&#281;sto przez integracj&#281; zewn&#281;trznych zasob&#243;w.</text><text fill="#000000" font-family="sans-serif" font-size="13" lengthAdjust="spacing" textLength="453" x="272" y="153.3325">Cz&#281;sto implementuje interfejsy zdefiniowane w `DietPenguin.Domain`</text></g><!--entity DietPenguin.Application--><g id="elem_DietPenguin.Application"><path d="M1181,221 L1389,221 A3.75,3.75 0 0 1 1391.5,223.5 L1398.5,243.2969 L1413,243.2969 A2.5,2.5 0 0 1 1415.5,245.7969 L1415.5,257.7969 A2.5,2.5 0 0 1 1413,260.2969 L1181,260.2969 A2.5,2.5 0 0 1 1178.5,257.7969 L1178.5,223.5 A2.5,2.5 0 0 1 1181,221 " fill="#F1F1F1" style="stroke:#181818;stroke-width:0.5;"/><line style="stroke:#181818;stroke-width:0.5;" x1="1178.5" x2="1398.5" y1="243.2969" y2="243.2969"/><text fill="#000000" font-family="sans-serif" font-size="14" font-weight="bold" lengthAdjust="spacing" textLength="195" x="1188.5" y="236.9951">DietPenguin.Application</text></g><g id="elem_GMN15"><path d="M910.5,327 L910.5,352.1328 A0,0 0 0 0 910.5,352.1328 L1683.5,352.1328 A0,0 0 0 0 1683.5,352.1328 L1683.5,337 L1673.5,327 L1301,327 L1297,260.203 L1293,327 L910.5,327 A0,0 0 0 0 910.5,327 " fill="#FEFFDD" style="stroke:#181818;stroke-width:0.5;"/><path d="M1673.5,327 L1673.5,337 L1683.5,337 L1673.5,327 " fill="#FEFFDD" style="stroke:#181818;stroke-width:0.5;"/><text fill="#000000" font-family="sans-serif" font-size="13" lengthAdjust="spacing" textLength="752" x="916.5" y="344.0669">Koordynacja us&#322;ug i zaimplementowanych poj&#281;&#263; domenowych w celu implementacji konkretnych przypadk&#243;w u&#380;ycia.</text></g><!--entity DietPenguin.WebApi--><g id="elem_DietPenguin.WebApi"><path d="M1197.5,114 L1372.5,114 A3.75,3.75 0 0 1 1375,116.5 L1382,136.2969 L1396.5,136.2969 A2.5,2.5 0 0 1 1399,138.7969 L1399,150.7969 A2.5,2.5 0 0 1 1396.5,153.2969 L1197.5,153.2969 A2.5,2.5 0 0 1 1195,150.7969 L1195,116.5 A2.5,2.5 0 0 1 1197.5,114 " fill="#F1F1F1" style="stroke:#181818;stroke-width:0.5;"/><line style="stroke:#181818;stroke-width:0.5;" x1="1195" x2="1382" y1="136.2969" y2="136.2969"/><text fill="#000000" font-family="sans-serif" font-size="14" font-weight="bold" lengthAdjust="spacing" textLength="162" x="1205" y="129.9951">DietPenguin.WebApi</text></g><g id="elem_GMN19"><path d="M1071.5,6 L1071.5,46.2656 A0,0 0 0 0 1071.5,46.2656 L1305.25,46.2656 L1299.63,113.98 L1313.25,46.2656 L1552.5,46.2656 A0,0 0 0 0 1552.5,46.2656 L1552.5,16 L1542.5,6 L1071.5,6 A0,0 0 0 0 1071.5,6 " fill="#FEFFDD" style="stroke:#181818;stroke-width:0.5;"/><path d="M1542.5,6 L1542.5,16 L1552.5,16 L1542.5,6 " fill="#FEFFDD" style="stroke:#181818;stroke-width:0.5;"/><text fill="#000000" font-family="sans-serif" font-size="13" lengthAdjust="spacing" textLength="456" x="1077.5" y="23.0669">"Cienkie" kontrolery przekazuj&#261;ce &#380;&#261;dania do `DietPenguin.Application`</text><text fill="#000000" font-family="sans-serif" font-size="13" lengthAdjust="spacing" textLength="366" x="1077.5" y="38.1997">i integruj&#261;ce pozosta&#322;e warstwy we wdra&#380;aln&#261; jednostk&#281;.</text></g><!--entity DietPenguin.WebApi.Contracts--><g id="elem_DietPenguin.WebApi.Contracts"><path d="M855.5,221 L1116.5,221 A3.75,3.75 0 0 1 1119,223.5 L1126,243.2969 L1140.5,243.2969 A2.5,2.5 0 0 1 1143,245.7969 L1143,257.7969 A2.5,2.5 0 0 1 1140.5,260.2969 L855.5,260.2969 A2.5,2.5 0 0 1 853,257.7969 L853,223.5 A2.5,2.5 0 0 1 855.5,221 " fill="#F1F1F1" style="stroke:#181818;stroke-width:0.5;"/><line style="stroke:#181818;stroke-width:0.5;" x1="853" x2="1126" y1="243.2969" y2="243.2969"/><text fill="#000000" font-family="sans-serif" font-size="14" font-weight="bold" lengthAdjust="spacing" textLength="248" x="863" y="236.9951">DietPenguin.WebApi.Contracts</text></g><g id="elem_GMN23"><path d="M668.5,228 L668.5,253.1328 A0,0 0 0 0 668.5,253.1328 L817.5,253.1328 A0,0 0 0 0 817.5,253.1328 L817.5,246 L852.921,240.5 L817.5,238 L817.5,238 L807.5,228 L668.5,228 A0,0 0 0 0 668.5,228 " fill="#FEFFDD" style="stroke:#181818;stroke-width:0.5;"/><path d="M807.5,228 L807.5,238 L817.5,238 L807.5,228 " fill="#FEFFDD" style="stroke:#181818;stroke-width:0.5;"/><text fill="#000000" font-family="sans-serif" font-size="13" lengthAdjust="spacing" textLength="128" x="674.5" y="245.0669">Kontrakty (DTO) API</text></g><!--entity DietPenguin.Gui--><g id="elem_DietPenguin.Gui"><path d="M907,114 L1049,114 A3.75,3.75 0 0 1 1051.5,116.5 L1058.5,136.2969 L1073,136.2969 A2.5,2.5 0 0 1 1075.5,138.7969 L1075.5,150.7969 A2.5,2.5 0 0 1 1073,153.2969 L907,153.2969 A2.5,2.5 0 0 1 904.5,150.7969 L904.5,116.5 A2.5,2.5 0 0 1 907,114 " fill="#F1F1F1" style="stroke:#181818;stroke-width:0.5;"/><line style="stroke:#181818;stroke-width:0.5;" x1="904.5" x2="1058.5" y1="136.2969" y2="136.2969"/><text fill="#000000" font-family="sans-serif" font-size="14" font-weight="bold" lengthAdjust="spacing" textLength="129" x="914.5" y="129.9951">DietPenguin.Gui</text></g><g id="elem_GMN27"><path d="M930,13.5 L930,38.6328 A0,0 0 0 0 930,38.6328 L979.776,38.6328 L988.749,113.644 L987.776,38.6328 L1036,38.6328 A0,0 0 0 0 1036,38.6328 L1036,23.5 L1026,13.5 L930,13.5 A0,0 0 0 0 930,13.5 " fill="#FEFFDD" style="stroke:#181818;stroke-width:0.5;"/><path d="M1026,13.5 L1026,23.5 L1036,23.5 L1026,13.5 " fill="#FEFFDD" style="stroke:#181818;stroke-width:0.5;"/><text fill="#000000" font-family="sans-serif" font-size="13" lengthAdjust="spacing" textLength="85" x="936" y="30.5669">Aplikacja SPA</text></g><!--link DietPenguin.Domain to DietPenguin.Core--><g id="link_DietPenguin.Domain_DietPenguin.Core"><path d="M638,359.299 C638,376.564 638,396.012 638,413.2587 " fill="none" id="DietPenguin.Domain-to-DietPenguin.Core" style="stroke:#181818;stroke-width:1.0;"/><polygon fill="#181818" points="638,419.2587,642,410.2587,638,414.2587,634,410.2587,638,419.2587" style="stroke:#181818;stroke-width:1.0;"/></g><!--link DietPenguin.Application to DietPenguin.Domain--><g id="link_DietPenguin.Application_DietPenguin.Domain"><path d="M1178.42,258.954 C1053.63,277.322 865.152,305.0653 746.678,322.5033 " fill="none" id="DietPenguin.Application-to-DietPenguin.Domain" style="stroke:#181818;stroke-width:1.0;"/><polygon fill="#181818" points="740.742,323.377,750.2285,326.0238,745.6887,322.6489,749.0636,318.1091,740.742,323.377" style="stroke:#181818;stroke-width:1.0;"/></g><!--link DietPenguin.Infrastructure to DietPenguin.Domain--><g id="link_DietPenguin.Infrastructure_DietPenguin.Domain"><path d="M529.029,260.203 C552.935,277.379 583.2973,299.1961 607.1783,316.3541 " fill="none" id="DietPenguin.Infrastructure-to-DietPenguin.Domain" style="stroke:#181818;stroke-width:1.0;"/><polygon fill="#181818" points="612.051,319.855,607.0759,311.3551,607.9904,316.9375,602.408,317.8521,612.051,319.855" style="stroke:#181818;stroke-width:1.0;"/></g><!--link DietPenguin.WebApi to DietPenguin.Application--><g id="link_DietPenguin.WebApi_DietPenguin.Application"><path d="M1297,153.272 C1297,172.384 1297,195.837 1297,214.891 " fill="none" id="DietPenguin.WebApi-to-DietPenguin.Application" style="stroke:#181818;stroke-width:1.0;"/><polygon fill="#181818" points="1297,220.891,1301,211.891,1297,215.891,1293,211.891,1297,220.891" style="stroke:#181818;stroke-width:1.0;"/></g><!--link DietPenguin.WebApi to DietPenguin.WebApi.Contracts--><g id="link_DietPenguin.WebApi_DietPenguin.WebApi.Contracts"><path d="M1244.23,153.03 C1189.75,172.164 1110.8811,199.8601 1056.4011,218.9911 " fill="none" id="DietPenguin.WebApi-to-DietPenguin.WebApi.Contracts" style="stroke:#181818;stroke-width:1.0;"/><polygon fill="#181818" points="1050.74,220.979,1060.5569,221.7712,1055.4576,219.3224,1057.9064,214.223,1050.74,220.979" style="stroke:#181818;stroke-width:1.0;"/></g><!--link DietPenguin.Gui to DietPenguin.WebApi.Contracts--><g id="link_DietPenguin.Gui_DietPenguin.WebApi.Contracts"><path d="M991.43,153.272 C992.886,172.384 994.6741,195.8543 996.1261,214.9083 " fill="none" id="DietPenguin.Gui-to-DietPenguin.WebApi.Contracts" style="stroke:#181818;stroke-width:1.0;"/><polygon fill="#181818" points="996.582,220.891,999.8866,211.6131,996.2021,215.9055,991.9097,212.221,996.582,220.891" style="stroke:#181818;stroke-width:1.0;"/></g><!--SRC=[ZPF1Rjim38RlUGeYfnPeym0z30YIOIXsM84DsA4f44PcN5cE94Wo3EjOBDWpv3bwpQtsUurEt3H9ZI4tM-9F_ln8MHGAKuBXL59u89qMKeycnj5me4qWS39z3dVmDQSLwL11wUtRQwu9aXpv9rO-A2cU0Rqb5TvUIqWCHrOpVOKB7nmgaI6G5fcy0KmTfHYA6uW9kaXQuZxSb9GQaC6EhWUspz7Kh53gpbDEIxRqtIHWhFH5Lgz5rHcekl9WJU02Yywe8ynbD2LgoY1YWiqVG9jBXUohl-AzNZha1WeHYWEDOEmT76uKt-2XKjiA955YyuBSs4mV2l253-X4H0uIiTxuOC2oA8BKWLB7GVK68fMwtd0oNJ7GYDuicETefYUTHAxiVWn5HZkbMrBcAuP9IwdbhZqeOVuPt1pwcnnRzYWmIFFETc52CAkMhd59fR6TNk6Rbo85oPuE5jfYhKrhs7hzztsCxL49WlBYm-qEWJ9QEGfxZOkLnKIrsr8qsqf87FNx-qsBiPN7y8SJILf96hOPWpCvkMh7Kc7SRG91iwtN2UvtwnJ6KRjpc6dPuUzqriHsJiqBGqJdGydRpf-9msQBkQxNa56YEKJLc__wvVV3rb04VxQmxMcxerVJNp-kOVnmtv_bMt7IyhZR8uIV3-F1uF7pU9_WzlOBF9u_uQVJsAFkUmHTfbF9wIEuLBMdq1DzxE12oJdHCnsZkaJq3m00]--></g></svg>